<svg xmlns="http://www.w3.org/2000/svg" width="1920" height="1080"><path d="M709,1254L96,1273L880,1271Z" fill="#627daa" stroke="#627daa" stroke-width="1.51"/><path d="M-83,-195L366,-182L996,-187Z" fill="#d9e8f5" stroke="#d9e8f5" stroke-width="1.51"/><path d="M996,-187L1107,-177L1366,-173Z" fill="#a8c8e5" stroke="#a8c8e5" stroke-width="1.51"/><path d="M1636,1249L1451,1251L1683,1251Z" fill="#155193" stroke="#155193" stroke-width="1.51"/><path d="M1451,1251L1250,1261L1683,1251Z" fill="#1d5796" stroke="#1d5796" stroke-width="1.51"/><path d="M996,-187L1366,-173L1743,-181Z" fill="#9ebddf" stroke="#9ebddf" stroke-width="1.51"/><path d="M-83,-195L996,-187L1940,-193Z" fill="#b4d3ea" stroke="#b4d3ea" stroke-width="1.51"/><path d="M1743,-181L1872,-187L1940,-193Z" fill="#90a0cd" stroke="#90a0cd" stroke-width="1.51"/><path d="M996,-187L1743,-181L1940,-193Z" fill="#98b2d9" stroke="#98b2d9" stroke-width="1.51"/><path d="M1683,1251L1250,1261L1981,1258Z" fill="#134e90" stroke="#134e90" stroke-width="1.51"/><path d="M1250,1261L1089,1268L1981,1258Z" fill="#1e5896" stroke="#1e5896" stroke-width="1.51"/><path d="M1809,1235L1683,1251L1981,1258Z" fill="#0a458a" stroke="#0a458a" stroke-width="1.51"/><path d="M2100,303L2003,394L2101,480Z" fill="#577bab" stroke="#577bab" stroke-width="1.51"/><path d="M1945,153L2109,220L2120,83Z" fill="#7286b3" stroke="#7286b3" stroke-width="1.51"/><path d="M2086,-138L1995,-5L2121,2Z" fill="#7f8db7" stroke="#7f8db7" stroke-width="1.51"/><path d="M1967,1138L2106,1249L2132,1055Z" fill="#094184" stroke="#094184" stroke-width="1.51"/><path d="M2042,993L1967,1138L2132,1055Z" fill="#0d498e" stroke="#0d498e" stroke-width="1.51"/><path d="M2079,897L2042,993L2132,1055Z" fill="#124d90" stroke="#124d90" stroke-width="1.51"/><path d="M2101,480L1933,581L2133,569Z" fill="#4071a7" stroke="#4071a7" stroke-width="1.51"/><path d="M1933,581L2035,701L2133,569Z" fill="#386da5" stroke="#386da5" stroke-width="1.51"/><path d="M2035,701L2079,897L2133,569Z" fill="#2a639d" stroke="#2a639d" stroke-width="1.51"/><path d="M2109,220L2100,303L2133,569Z" fill="#597aa7" stroke="#597aa7" stroke-width="1.51"/><path d="M2100,303L2101,480L2133,569Z" fill="#4d74a5" stroke="#4d74a5" stroke-width="1.51"/><path d="M2120,83L2109,220L2133,569Z" fill="#617da9" stroke="#617da9" stroke-width="1.51"/><path d="M2079,897L2132,1055L2133,569Z" fill="#1e5895" stroke="#1e5895" stroke-width="1.51"/><path d="M2121,2L2120,83L2133,569Z" fill="#6a7fac" stroke="#6a7fac" stroke-width="1.51"/><path d="M1995,-5L2120,83L2121,2Z" fill="#7a89b4" stroke="#7a89b4" stroke-width="1.51"/><path d="M2035,701L1916,750L2079,897Z" fill="#2562a1" stroke="#2562a1" stroke-width="1.51"/><path d="M1967,1138L1981,1258L2106,1249Z" fill="#093d7f" stroke="#093d7f" stroke-width="1.51"/><path d="M1995,-5L1945,153L2120,83Z" fill="#788bb9" stroke="#788bb9" stroke-width="1.51"/><path d="M1916,750L1921,883L2079,897Z" fill="#205fa2" stroke="#205fa2" stroke-width="1.51"/><path d="M1987,433L1933,581L2101,480Z" fill="#4977ac" stroke="#4977ac" stroke-width="1.51"/><path d="M2003,394L1987,433L2101,480Z" fill="#517aac" stroke="#517aac" stroke-width="1.51"/><path d="M1910,235L2100,303L2109,220Z" fill="#6983b1" stroke="#6983b1" stroke-width="1.51"/><path d="M1945,153L1910,235L2109,220Z" fill="#6f88b8" stroke="#6f88b8" stroke-width="1.51"/><path d="M2006,929L2042,993L2079,897Z" fill="#155397" stroke="#155397" stroke-width="1.51"/><path d="M1921,883L2006,929L2079,897Z" fill="#18599c" stroke="#18599c" stroke-width="1.51"/><path d="M1910,235L2003,394L2100,303Z" fill="#6383b2" stroke="#6383b2" stroke-width="1.51"/><path d="M1940,-193L1995,-5L2086,-138Z" fill="#8593be" stroke="#8593be" stroke-width="1.51"/><path d="M1910,235L1863,345L2003,394Z" fill="#6387b9" stroke="#6387b9" stroke-width="1.51"/><path d="M1815,1008L1828,1066L2006,929Z" fill="#1157a0" stroke="#1157a0" stroke-width="1.51"/><path d="M2006,929L1828,1066L2042,993Z" fill="#11549a" stroke="#11549a" stroke-width="1.51"/><path d="M1828,1066L1967,1138L2042,993Z" fill="#0c4e96" stroke="#0c4e96" stroke-width="1.51"/><path d="M1933,581L1916,750L2035,701Z" fill="#326da9" stroke="#326da9" stroke-width="1.51"/><path d="M1863,714L1916,750L1933,581Z" fill="#3271ae" stroke="#3271ae" stroke-width="1.51"/><path d="M1872,-187L1878,17L1940,-193Z" fill="#8a9bc7" stroke="#8a9bc7" stroke-width="1.51"/><path d="M1878,17L1945,153L1995,-5Z" fill="#7c91c0" stroke="#7c91c0" stroke-width="1.51"/><path d="M1940,-193L1878,17L1995,-5Z" fill="#8496c2" stroke="#8496c2" stroke-width="1.51"/><path d="M1921,883L1815,1008L2006,929Z" fill="#165ba1" stroke="#165ba1" stroke-width="1.51"/><path d="M1863,345L1987,433L2003,394Z" fill="#5a82b5" stroke="#5a82b5" stroke-width="1.51"/><path d="M243,1246L96,1273L709,1254Z" fill="#7084b0" stroke="#7084b0" stroke-width="1.51"/><path d="M1967,1138L1809,1235L1981,1258Z" fill="#094387" stroke="#094387" stroke-width="1.51"/><path d="M1806,450L1933,581L1987,433Z" fill="#4c7eb5" stroke="#4c7eb5" stroke-width="1.51"/><path d="M1863,345L1806,450L1987,433Z" fill="#5984ba" stroke="#5984ba" stroke-width="1.51"/><path d="M1806,450L1850,583L1933,581Z" fill="#457db8" stroke="#457db8" stroke-width="1.51"/><path d="M1878,17L1858,142L1945,153Z" fill="#7b92c3" stroke="#7b92c3" stroke-width="1.51"/><path d="M1850,583L1863,714L1933,581Z" fill="#3a76b3" stroke="#3a76b3" stroke-width="1.51"/><path d="M1828,1066L1809,1235L1967,1138Z" fill="#094c94" stroke="#094c94" stroke-width="1.51"/><path d="M1847,877L1815,1008L1921,883Z" fill="#1660a7" stroke="#1660a7" stroke-width="1.51"/><path d="M1916,750L1847,877L1921,883Z" fill="#2165a8" stroke="#2165a8" stroke-width="1.51"/><path d="M1858,142L1910,235L1945,153Z" fill="#758fc0" stroke="#758fc0" stroke-width="1.51"/><path d="M1872,-187L1719,-50L1878,17Z" fill="#899dcb" stroke="#899dcb" stroke-width="1.51"/><path d="M1828,216L1863,345L1910,235Z" fill="#6c8dc0" stroke="#6c8dc0" stroke-width="1.51"/><path d="M1858,142L1828,216L1910,235Z" fill="#7390c3" stroke="#7390c3" stroke-width="1.51"/><path d="M1863,714L1847,877L1916,750Z" fill="#276bac" stroke="#276bac" stroke-width="1.51"/><path d="M1743,-181L1719,-50L1872,-187Z" fill="#8fa3cf" stroke="#8fa3cf" stroke-width="1.51"/><path d="M366,-182L841,-155L996,-187Z" fill="#c3dded" stroke="#c3dded" stroke-width="1.51"/><path d="M1366,-173L1412,-150L1743,-181Z" fill="#98b4db" stroke="#98b4db" stroke-width="1.51"/><path d="M1828,216L1748,271L1863,345Z" fill="#6c90c3" stroke="#6c90c3" stroke-width="1.51"/><path d="M1742,873L1847,877L1863,714Z" fill="#236bae" stroke="#236bae" stroke-width="1.51"/><path d="M1732,702L1742,873L1863,714Z" fill="#2b72b2" stroke="#2b72b2" stroke-width="1.51"/><path d="M1850,583L1732,702L1863,714Z" fill="#3677b5" stroke="#3677b5" stroke-width="1.51"/><path d="M1718,90L1858,142L1878,17Z" fill="#7f97c9" stroke="#7f97c9" stroke-width="1.51"/><path d="M1719,-50L1718,90L1878,17Z" fill="#849dcc" stroke="#849dcc" stroke-width="1.51"/><path d="M1806,450L1753,469L1850,583Z" fill="#4d83bc" stroke="#4d83bc" stroke-width="1.51"/><path d="M1742,873L1815,1008L1847,877Z" fill="#1963aa" stroke="#1963aa" stroke-width="1.51"/><path d="M1731,390L1806,450L1863,345Z" fill="#5d8bbf" stroke="#5d8bbf" stroke-width="1.51"/><path d="M1748,271L1731,390L1863,345Z" fill="#6690c2" stroke="#6690c2" stroke-width="1.51"/><path d="M1659,1077L1809,1235L1828,1066Z" fill="#0d539c" stroke="#0d539c" stroke-width="1.51"/><path d="M1698,585L1732,702L1850,583Z" fill="#3d7db9" stroke="#3d7db9" stroke-width="1.51"/><path d="M1718,90L1828,216L1858,142Z" fill="#7a96c8" stroke="#7a96c8" stroke-width="1.51"/><path d="M1753,469L1698,585L1850,583Z" fill="#4682bc" stroke="#4682bc" stroke-width="1.51"/><path d="M1659,1077L1683,1251L1809,1235Z" fill="#105096" stroke="#105096" stroke-width="1.51"/><path d="M1742,873L1712,1014L1815,1008Z" fill="#1761a9" stroke="#1761a9" stroke-width="1.51"/><path d="M1815,1008L1712,1014L1828,1066Z" fill="#125aa3" stroke="#125aa3" stroke-width="1.51"/><path d="M1712,1014L1659,1077L1828,1066Z" fill="#135ba4" stroke="#135ba4" stroke-width="1.51"/><path d="M1718,90L1748,271L1828,216Z" fill="#7797c8" stroke="#7797c8" stroke-width="1.51"/><path d="M1412,-150L1569,-105L1743,-181Z" fill="#94afd8" stroke="#94afd8" stroke-width="1.51"/><path d="M1731,390L1753,469L1806,450Z" fill="#588abf" stroke="#588abf" stroke-width="1.51"/><path d="M1591,118L1587,231L1718,90Z" fill="#7ea0cf" stroke="#7ea0cf" stroke-width="1.51"/><path d="M1633,27L1718,90L1719,-50Z" fill="#86a2cf" stroke="#86a2cf" stroke-width="1.51"/><path d="M1617,1010L1712,1014L1742,873Z" fill="#1a65ab" stroke="#1a65ab" stroke-width="1.51"/><path d="M1732,702L1570,859L1742,873Z" fill="#2973b4" stroke="#2973b4" stroke-width="1.51"/><path d="M1569,-105L1719,-50L1743,-181Z" fill="#90a8d3" stroke="#90a8d3" stroke-width="1.51"/><path d="M1718,90L1587,231L1748,271Z" fill="#789bcb" stroke="#789bcb" stroke-width="1.51"/><path d="M1597,310L1731,390L1748,271Z" fill="#6995c6" stroke="#6995c6" stroke-width="1.51"/><path d="M1731,390L1533,512L1753,469Z" fill="#578ec3" stroke="#578ec3" stroke-width="1.51"/><path d="M1533,512L1698,585L1753,469Z" fill="#4c8ac1" stroke="#4c8ac1" stroke-width="1.51"/><path d="M1659,1077L1636,1249L1683,1251Z" fill="#125398" stroke="#125398" stroke-width="1.51"/><path d="M1570,859L1617,1010L1742,873Z" fill="#1e6cb1" stroke="#1e6cb1" stroke-width="1.51"/><path d="M1587,231L1597,310L1748,271Z" fill="#719aca" stroke="#719aca" stroke-width="1.51"/><path d="M1536,688L1570,859L1732,702Z" fill="#307cba" stroke="#307cba" stroke-width="1.51"/><path d="M1597,310L1533,512L1731,390Z" fill="#6095c7" stroke="#6095c7" stroke-width="1.51"/><path d="M1698,585L1536,688L1732,702Z" fill="#3a80bc" stroke="#3a80bc" stroke-width="1.51"/><path d="M1544,594L1536,688L1698,585Z" fill="#4187c1" stroke="#4187c1" stroke-width="1.51"/><path d="M1569,-105L1633,27L1719,-50Z" fill="#8ca8d3" stroke="#8ca8d3" stroke-width="1.51"/><path d="M1633,27L1591,118L1718,90Z" fill="#83a2d0" stroke="#83a2d0" stroke-width="1.51"/><path d="M1107,-177L1199,-159L1366,-173Z" fill="#a4c5e3" stroke="#a4c5e3" stroke-width="1.51"/><path d="M1617,1010L1659,1077L1712,1014Z" fill="#1761a8" stroke="#1761a8" stroke-width="1.51"/><path d="M1533,512L1544,594L1698,585Z" fill="#488bc3" stroke="#488bc3" stroke-width="1.51"/><path d="M1539,1059L1636,1249L1659,1077Z" fill="#145ba2" stroke="#145ba2" stroke-width="1.51"/><path d="M1489,330L1533,512L1597,310Z" fill="#659bcb" stroke="#659bcb" stroke-width="1.51"/><path d="M1539,1059L1451,1251L1636,1249Z" fill="#185a9e" stroke="#185a9e" stroke-width="1.51"/><path d="M1617,1010L1539,1059L1659,1077Z" fill="#1862aa" stroke="#1862aa" stroke-width="1.51"/><path d="M1428,1146L1451,1251L1539,1059Z" fill="#1e60a4" stroke="#1e60a4" stroke-width="1.51"/><path d="M1570,859L1459,903L1617,1010Z" fill="#2170b5" stroke="#2170b5" stroke-width="1.51"/><path d="M1569,-105L1434,-71L1633,27Z" fill="#8fadd7" stroke="#8fadd7" stroke-width="1.51"/><path d="M1434,-71L1591,118L1633,27Z" fill="#89aad5" stroke="#89aad5" stroke-width="1.51"/><path d="M1536,688L1461,724L1570,859Z" fill="#3380bd" stroke="#3380bd" stroke-width="1.51"/><path d="M1434,-71L1450,149L1591,118Z" fill="#89acd6" stroke="#89acd6" stroke-width="1.51"/><path d="M1459,903L1539,1059L1617,1010Z" fill="#1e6bb0" stroke="#1e6bb0" stroke-width="1.51"/><path d="M1489,330L1470,507L1533,512Z" fill="#5d98ca" stroke="#5d98ca" stroke-width="1.51"/><path d="M1459,903L1432,962L1539,1059Z" fill="#2470b3" stroke="#2470b3" stroke-width="1.51"/><path d="M1461,183L1587,231L1591,118Z" fill="#7ea4d2" stroke="#7ea4d2" stroke-width="1.51"/><path d="M1587,231L1489,330L1597,310Z" fill="#719fce" stroke="#719fce" stroke-width="1.51"/><path d="M1450,149L1461,183L1591,118Z" fill="#82a8d4" stroke="#82a8d4" stroke-width="1.51"/><path d="M1461,183L1489,330L1587,231Z" fill="#78a3d0" stroke="#78a3d0" stroke-width="1.51"/><path d="M1533,512L1491,575L1544,594Z" fill="#4a8fc6" stroke="#4a8fc6" stroke-width="1.51"/><path d="M1412,-150L1434,-71L1569,-105Z" fill="#96b4db" stroke="#96b4db" stroke-width="1.51"/><path d="M1461,724L1459,903L1570,859Z" fill="#2e7bbb" stroke="#2e7bbb" stroke-width="1.51"/><path d="M1434,-71L1335,82L1450,149Z" fill="#8cb1d9" stroke="#8cb1d9" stroke-width="1.51"/><path d="M1491,575L1461,724L1536,688Z" fill="#3f89c2" stroke="#3f89c2" stroke-width="1.51"/><path d="M1491,575L1536,688L1544,594Z" fill="#438bc3" stroke="#438bc3" stroke-width="1.51"/><path d="M1470,507L1491,575L1533,512Z" fill="#5092c8" stroke="#5092c8" stroke-width="1.51"/><path d="M1432,962L1428,1146L1539,1059Z" fill="#216aae" stroke="#216aae" stroke-width="1.51"/><path d="M1375,338L1470,507L1489,330Z" fill="#68a0cd" stroke="#68a0cd" stroke-width="1.51"/><path d="M1353,1002L1341,1082L1428,1146Z" fill="#266daf" stroke="#266daf" stroke-width="1.51"/><path d="M1353,1002L1428,1146L1432,962Z" fill="#266eb1" stroke="#266eb1" stroke-width="1.51"/><path d="M1339,-25L1335,82L1434,-71Z" fill="#92b6db" stroke="#92b6db" stroke-width="1.51"/><path d="M1293,814L1459,903L1461,724Z" fill="#3582be" stroke="#3582be" stroke-width="1.51"/><path d="M1375,338L1335,493L1470,507Z" fill="#629fcd" stroke="#629fcd" stroke-width="1.51"/><path d="M1461,183L1375,338L1489,330Z" fill="#76a5d1" stroke="#76a5d1" stroke-width="1.51"/><path d="M1470,507L1352,648L1491,575Z" fill="#4d93c8" stroke="#4d93c8" stroke-width="1.51"/><path d="M1352,648L1461,724L1491,575Z" fill="#438ec5" stroke="#438ec5" stroke-width="1.51"/><path d="M1335,493L1352,648L1470,507Z" fill="#5298ca" stroke="#5298ca" stroke-width="1.51"/><path d="M1287,187L1375,338L1461,183Z" fill="#7eacd5" stroke="#7eacd5" stroke-width="1.51"/><path d="M1346,691L1293,814L1461,724Z" fill="#3c8ac2" stroke="#3c8ac2" stroke-width="1.51"/><path d="M1352,648L1346,691L1461,724Z" fill="#418dc4" stroke="#418dc4" stroke-width="1.51"/><path d="M1450,149L1287,187L1461,183Z" fill="#84add6" stroke="#84add6" stroke-width="1.51"/><path d="M1428,1146L1284,1192L1451,1251Z" fill="#2361a1" stroke="#2361a1" stroke-width="1.51"/><path d="M1293,814L1432,962L1459,903Z" fill="#2e7bbb" stroke="#2e7bbb" stroke-width="1.51"/><path d="M1293,814L1353,1002L1432,962Z" fill="#2d7aba" stroke="#2d7aba" stroke-width="1.51"/><path d="M1284,1192L1250,1261L1451,1251Z" fill="#26609d" stroke="#26609d" stroke-width="1.51"/><path d="M1335,82L1287,187L1450,149Z" fill="#88b1d8" stroke="#88b1d8" stroke-width="1.51"/><path d="M1412,-150L1339,-25L1434,-71Z" fill="#97b7dc" stroke="#97b7dc" stroke-width="1.51"/><path d="M1366,-173L1339,-25L1412,-150Z" fill="#99badd" stroke="#99badd" stroke-width="1.51"/><path d="M1287,187L1253,251L1375,338Z" fill="#7eafd6" stroke="#7eafd6" stroke-width="1.51"/><path d="M1341,1082L1284,1192L1428,1146Z" fill="#2668a9" stroke="#2668a9" stroke-width="1.51"/><path d="M1335,493L1186,591L1352,648Z" fill="#539bcb" stroke="#539bcb" stroke-width="1.51"/><path d="M1293,814L1189,989L1353,1002Z" fill="#317fbb" stroke="#317fbb" stroke-width="1.51"/><path d="M1199,-159L1339,-25L1366,-173Z" fill="#9dbfdf" stroke="#9dbfdf" stroke-width="1.51"/><path d="M1186,346L1335,493L1375,338Z" fill="#6da8d2" stroke="#6da8d2" stroke-width="1.51"/><path d="M1253,251L1186,346L1375,338Z" fill="#79aed5" stroke="#79aed5" stroke-width="1.51"/><path d="M1241,103L1287,187L1335,82Z" fill="#8cb6db" stroke="#8cb6db" stroke-width="1.51"/><path d="M1241,103L1335,82L1339,-25Z" fill="#90b8dc" stroke="#90b8dc" stroke-width="1.51"/><path d="M1202,-18L1241,103L1339,-25Z" fill="#95bcde" stroke="#95bcde" stroke-width="1.51"/><path d="M1199,-159L1202,-18L1339,-25Z" fill="#9bc0e0" stroke="#9bc0e0" stroke-width="1.51"/><path d="M1228,702L1293,814L1346,691Z" fill="#408fc5" stroke="#408fc5" stroke-width="1.51"/><path d="M1228,702L1346,691L1352,648Z" fill="#4592c7" stroke="#4592c7" stroke-width="1.51"/><path d="M1186,591L1228,702L1352,648Z" fill="#4c98c9" stroke="#4c98c9" stroke-width="1.51"/><path d="M1189,989L1341,1082L1353,1002Z" fill="#2d76b5" stroke="#2d76b5" stroke-width="1.51"/><path d="M1176,525L1186,591L1335,493Z" fill="#5aa1cf" stroke="#5aa1cf" stroke-width="1.51"/><path d="M1186,346L1176,525L1335,493Z" fill="#67a7d1" stroke="#67a7d1" stroke-width="1.51"/><path d="M1158,1090L1284,1192L1341,1082Z" fill="#2c6fae" stroke="#2c6fae" stroke-width="1.51"/><path d="M1189,989L1158,1090L1341,1082Z" fill="#3176b4" stroke="#3176b4" stroke-width="1.51"/><path d="M1228,702L1167,815L1293,814Z" fill="#418fc5" stroke="#418fc5" stroke-width="1.51"/><path d="M1167,815L1189,989L1293,814Z" fill="#3a87c1" stroke="#3a87c1" stroke-width="1.51"/><path d="M1241,103L1253,251L1287,187Z" fill="#89b5da" stroke="#89b5da" stroke-width="1.51"/><path d="M1158,1090L1250,1261L1284,1192Z" fill="#2d6aa7" stroke="#2d6aa7" stroke-width="1.51"/><path d="M366,-182L544,-127L841,-155Z" fill="#cde2f1" stroke="#cde2f1" stroke-width="1.51"/><path d="M1111,58L1046,228L1241,103Z" fill="#94bddf" stroke="#94bddf" stroke-width="1.51"/><path d="M1202,-18L1111,58L1241,103Z" fill="#96bedf" stroke="#96bedf" stroke-width="1.51"/><path d="M1158,1090L1089,1268L1250,1261Z" fill="#326aa5" stroke="#326aa5" stroke-width="1.51"/><path d="M1241,103L1046,228L1253,251Z" fill="#8bb8dc" stroke="#8bb8dc" stroke-width="1.51"/><path d="M1046,228L1186,346L1253,251Z" fill="#83b6d9" stroke="#83b6d9" stroke-width="1.51"/><path d="M1167,815L1086,967L1189,989Z" fill="#3d85c0" stroke="#3d85c0" stroke-width="1.51"/><path d="M1186,591L1120,693L1228,702Z" fill="#509acb" stroke="#509acb" stroke-width="1.51"/><path d="M1120,693L1167,815L1228,702Z" fill="#4895c8" stroke="#4895c8" stroke-width="1.51"/><path d="M1055,1127L1089,1268L1158,1090Z" fill="#3972ad" stroke="#3972ad" stroke-width="1.51"/><path d="M1077,360L1049,474L1176,525Z" fill="#6faed5" stroke="#6faed5" stroke-width="1.51"/><path d="M1077,360L1176,525L1186,346Z" fill="#73aed5" stroke="#73aed5" stroke-width="1.51"/><path d="M1199,-159L1107,-177L1202,-18Z" fill="#a3c6e3" stroke="#a3c6e3" stroke-width="1.51"/><path d="M1107,-177L1039,-67L1202,-18Z" fill="#a4c7e4" stroke="#a4c7e4" stroke-width="1.51"/><path d="M-83,-195L254,-167L366,-182Z" fill="#e4eff9" stroke="#e4eff9" stroke-width="1.51"/><path d="M1040,903L1086,967L1167,815Z" fill="#438ac3" stroke="#438ac3" stroke-width="1.51"/><path d="M1046,228L1077,360L1186,346Z" fill="#82b7d9" stroke="#82b7d9" stroke-width="1.51"/><path d="M1039,-67L1111,58L1202,-18Z" fill="#9ec4e2" stroke="#9ec4e2" stroke-width="1.51"/><path d="M1176,525L1066,591L1186,591Z" fill="#5ca3d0" stroke="#5ca3d0" stroke-width="1.51"/><path d="M1066,591L1120,693L1186,591Z" fill="#589fce" stroke="#589fce" stroke-width="1.51"/><path d="M1086,967L1158,1090L1189,989Z" fill="#3a7dba" stroke="#3a7dba" stroke-width="1.51"/><path d="M1049,474L1066,591L1176,525Z" fill="#64a8d3" stroke="#64a8d3" stroke-width="1.51"/><path d="M991,1238L880,1271L1089,1268Z" fill="#3e6da3" stroke="#3e6da3" stroke-width="1.51"/><path d="M1086,967L1055,1127L1158,1090Z" fill="#3c7cb7" stroke="#3c7cb7" stroke-width="1.51"/><path d="M1120,693L1040,903L1167,815Z" fill="#4892c7" stroke="#4892c7" stroke-width="1.51"/><path d="M984,682L1040,903L1120,693Z" fill="#5099ca" stroke="#5099ca" stroke-width="1.51"/><path d="M596,1222L243,1246L709,1254Z" fill="#6780af" stroke="#6780af" stroke-width="1.51"/><path d="M984,682L925,842L1040,903Z" fill="#5197ca" stroke="#5197ca" stroke-width="1.51"/><path d="M1055,1127L991,1238L1089,1268Z" fill="#3b70a7" stroke="#3b70a7" stroke-width="1.51"/><path d="M934,90L1046,228L1111,58Z" fill="#9ac2e2" stroke="#9ac2e2" stroke-width="1.51"/><path d="M1039,-67L985,-16L1111,58Z" fill="#a2c7e4" stroke="#a2c7e4" stroke-width="1.51"/><path d="M1066,591L984,682L1120,693Z" fill="#59a1ce" stroke="#59a1ce" stroke-width="1.51"/><path d="M980,648L984,682L1066,591Z" fill="#5ea4d0" stroke="#5ea4d0" stroke-width="1.51"/><path d="M919,1026L1055,1127L1086,967Z" fill="#4280bb" stroke="#4280bb" stroke-width="1.51"/><path d="M996,-187L1039,-67L1107,-177Z" fill="#abcde7" stroke="#abcde7" stroke-width="1.51"/><path d="M985,-16L934,90L1111,58Z" fill="#a1c7e4" stroke="#a1c7e4" stroke-width="1.51"/><path d="M934,90L964,218L1046,228Z" fill="#98c3e2" stroke="#98c3e2" stroke-width="1.51"/><path d="M997,447L1049,474L1077,360Z" fill="#77b2d8" stroke="#77b2d8" stroke-width="1.51"/><path d="M919,1026L965,1129L1055,1127Z" fill="#447eb9" stroke="#447eb9" stroke-width="1.51"/><path d="M1046,228L953,304L1077,360Z" fill="#88bbdc" stroke="#88bbdc" stroke-width="1.51"/><path d="M1040,903L919,1026L1086,967Z" fill="#4688c0" stroke="#4688c0" stroke-width="1.51"/><path d="M1049,474L997,447L1066,591Z" fill="#6cadd5" stroke="#6cadd5" stroke-width="1.51"/><path d="M953,304L997,447L1077,360Z" fill="#80b8da" stroke="#80b8da" stroke-width="1.51"/><path d="M965,1129L991,1238L1055,1127Z" fill="#4076af" stroke="#4076af" stroke-width="1.51"/><path d="M997,447L980,648L1066,591Z" fill="#66aad4" stroke="#66aad4" stroke-width="1.51"/><path d="M964,218L953,304L1046,228Z" fill="#90bfdf" stroke="#90bfdf" stroke-width="1.51"/><path d="M867,459L980,648L997,447Z" fill="#70b0d7" stroke="#70b0d7" stroke-width="1.51"/><path d="M996,-187L985,-16L1039,-67Z" fill="#aacde7" stroke="#aacde7" stroke-width="1.51"/><path d="M925,842L919,1026L1040,903Z" fill="#4b8ec5" stroke="#4b8ec5" stroke-width="1.51"/><path d="M831,877L919,1026L925,842Z" fill="#5392c7" stroke="#5392c7" stroke-width="1.51"/><path d="M867,459L794,593L980,648Z" fill="#70afd7" stroke="#70afd7" stroke-width="1.51"/><path d="M834,689L925,842L984,682Z" fill="#5ca1cf" stroke="#5ca1cf" stroke-width="1.51"/><path d="M965,1129L880,1271L991,1238Z" fill="#4373aa" stroke="#4373aa" stroke-width="1.51"/><path d="M841,-155L985,-16L996,-187Z" fill="#b0d1e9" stroke="#b0d1e9" stroke-width="1.51"/><path d="M953,304L867,459L997,447Z" fill="#81b9db" stroke="#81b9db" stroke-width="1.51"/><path d="M818,352L867,459L953,304Z" fill="#8abedd" stroke="#8abedd" stroke-width="1.51"/><path d="M841,-155L798,-13L985,-16Z" fill="#b1d2e9" stroke="#b1d2e9" stroke-width="1.51"/><path d="M934,90L850,114L964,218Z" fill="#a0c7e4" stroke="#a0c7e4" stroke-width="1.51"/><path d="M794,593L834,689L980,648Z" fill="#6aaad3" stroke="#6aaad3" stroke-width="1.51"/><path d="M798,-13L934,90L985,-16Z" fill="#a9cde7" stroke="#a9cde7" stroke-width="1.51"/><path d="M980,648L834,689L984,682Z" fill="#60a5d1" stroke="#60a5d1" stroke-width="1.51"/><path d="M544,-127L677,-100L841,-155Z" fill="#c4deed" stroke="#c4deed" stroke-width="1.51"/><path d="M850,114L811,204L964,218Z" fill="#a0c8e3" stroke="#a0c8e3" stroke-width="1.51"/><path d="M811,204L953,304L964,218Z" fill="#96c3e1" stroke="#96c3e1" stroke-width="1.51"/><path d="M919,1026L815,1073L965,1129Z" fill="#4c83bc" stroke="#4c83bc" stroke-width="1.51"/><path d="M815,1073L880,1271L965,1129Z" fill="#4b7cb3" stroke="#4b7cb3" stroke-width="1.51"/><path d="M831,877L822,1027L919,1026Z" fill="#558ec4" stroke="#558ec4" stroke-width="1.51"/><path d="M798,-13L850,114L934,90Z" fill="#aacde7" stroke="#aacde7" stroke-width="1.51"/><path d="M811,204L818,352L953,304Z" fill="#95c3e0" stroke="#95c3e0" stroke-width="1.51"/><path d="M756,825L831,877L834,689Z" fill="#63a1ce" stroke="#63a1ce" stroke-width="1.51"/><path d="M834,689L831,877L925,842Z" fill="#5d9ecd" stroke="#5d9ecd" stroke-width="1.51"/><path d="M822,1027L815,1073L919,1026Z" fill="#5388bf" stroke="#5388bf" stroke-width="1.51"/><path d="M734,991L822,1027L831,877Z" fill="#5b91c5" stroke="#5b91c5" stroke-width="1.51"/><path d="M737,-63L798,-13L841,-155Z" fill="#b8d7ea" stroke="#b8d7ea" stroke-width="1.51"/><path d="M818,352L761,462L867,459Z" fill="#88bddc" stroke="#88bddc" stroke-width="1.51"/><path d="M761,462L794,593L867,459Z" fill="#7eb7da" stroke="#7eb7da" stroke-width="1.51"/><path d="M815,1073L709,1254L880,1271Z" fill="#517cae" stroke="#517cae" stroke-width="1.51"/><path d="M687,1062L709,1254L815,1073Z" fill="#5a85b9" stroke="#5a85b9" stroke-width="1.51"/><path d="M811,204L705,264L818,352Z" fill="#9dc8e2" stroke="#9dc8e2" stroke-width="1.51"/><path d="M705,264L720,333L818,352Z" fill="#9bc7e1" stroke="#9bc7e1" stroke-width="1.51"/><path d="M694,152L811,204L850,114Z" fill="#a9cde6" stroke="#a9cde6" stroke-width="1.51"/><path d="M798,-13L694,152L850,114Z" fill="#aed0e7" stroke="#aed0e7" stroke-width="1.51"/><path d="M794,593L705,675L834,689Z" fill="#71aed5" stroke="#71aed5" stroke-width="1.51"/><path d="M705,675L756,825L834,689Z" fill="#6ba9d2" stroke="#6ba9d2" stroke-width="1.51"/><path d="M677,-100L737,-63L841,-155Z" fill="#bedaec" stroke="#bedaec" stroke-width="1.51"/><path d="M761,462L706,558L794,593Z" fill="#7eb7da" stroke="#7eb7da" stroke-width="1.51"/><path d="M756,825L734,991L831,877Z" fill="#6099ca" stroke="#6099ca" stroke-width="1.51"/><path d="M720,333L761,462L818,352Z" fill="#92c2de" stroke="#92c2de" stroke-width="1.51"/><path d="M734,991L815,1073L822,1027Z" fill="#598cc1" stroke="#598cc1" stroke-width="1.51"/><path d="M734,991L687,1062L815,1073Z" fill="#5d8dc1" stroke="#5d8dc1" stroke-width="1.51"/><path d="M737,-63L694,152L798,-13Z" fill="#b5d4e9" stroke="#b5d4e9" stroke-width="1.51"/><path d="M694,152L705,264L811,204Z" fill="#a8cde5" stroke="#a8cde5" stroke-width="1.51"/><path d="M322,1207L243,1246L596,1222Z" fill="#7086b4" stroke="#7086b4" stroke-width="1.51"/><path d="M687,1062L609,1134L709,1254Z" fill="#6086b8" stroke="#6086b8" stroke-width="1.51"/><path d="M706,558L705,675L794,593Z" fill="#79b3d7" stroke="#79b3d7" stroke-width="1.51"/><path d="M-83,-195L47,-162L254,-167Z" fill="#e8f1fa" stroke="#e8f1fa" stroke-width="1.51"/><path d="M596,378L617,469L720,333Z" fill="#9bc7e1" stroke="#9bc7e1" stroke-width="1.51"/><path d="M677,-100L537,9L737,-63Z" fill="#c2dced" stroke="#c2dced" stroke-width="1.51"/><path d="M537,9L545,61L737,-63Z" fill="#c1dbed" stroke="#c1dbed" stroke-width="1.51"/><path d="M545,61L694,152L737,-63Z" fill="#bad7ea" stroke="#bad7ea" stroke-width="1.51"/><path d="M612,952L734,991L756,825Z" fill="#669aca" stroke="#669aca" stroke-width="1.51"/><path d="M613,832L612,952L756,825Z" fill="#6ca0cd" stroke="#6ca0cd" stroke-width="1.51"/><path d="M705,675L613,832L756,825Z" fill="#6fa7d1" stroke="#6fa7d1" stroke-width="1.51"/><path d="M720,333L617,469L761,462Z" fill="#92c3df" stroke="#92c3df" stroke-width="1.51"/><path d="M617,469L706,558L761,462Z" fill="#89bddd" stroke="#89bddd" stroke-width="1.51"/><path d="M609,1134L596,1222L709,1254Z" fill="#6081b1" stroke="#6081b1" stroke-width="1.51"/><path d="M630,554L705,675L706,558Z" fill="#7fb7d9" stroke="#7fb7d9" stroke-width="1.51"/><path d="M617,469L630,554L706,558Z" fill="#88bddd" stroke="#88bddd" stroke-width="1.51"/><path d="M612,952L687,1062L734,991Z" fill="#6594c5" stroke="#6594c5" stroke-width="1.51"/><path d="M535,710L613,832L705,675Z" fill="#77aed4" stroke="#77aed4" stroke-width="1.51"/><path d="M694,152L559,197L705,264Z" fill="#afd1e6" stroke="#afd1e6" stroke-width="1.51"/><path d="M705,264L596,378L720,333Z" fill="#a0cbe2" stroke="#a0cbe2" stroke-width="1.51"/><path d="M630,554L535,710L705,675Z" fill="#7fb5d8" stroke="#7fb5d8" stroke-width="1.51"/><path d="M559,197L596,378L705,264Z" fill="#a9cee4" stroke="#a9cee4" stroke-width="1.51"/><path d="M545,61L559,197L694,152Z" fill="#b9d5ea" stroke="#b9d5ea" stroke-width="1.51"/><path d="M544,-127L537,9L677,-100Z" fill="#c7deef" stroke="#c7deef" stroke-width="1.51"/><path d="M612,952L609,1134L687,1062Z" fill="#6691c3" stroke="#6691c3" stroke-width="1.51"/><path d="M504,1176L322,1207L596,1222Z" fill="#6c86b5" stroke="#6c86b5" stroke-width="1.51"/><path d="M559,197L440,359L596,378Z" fill="#acd0e5" stroke="#acd0e5" stroke-width="1.51"/><path d="M450,1015L609,1134L612,952Z" fill="#6d94c5" stroke="#6d94c5" stroke-width="1.51"/><path d="M495,620L535,710L630,554Z" fill="#86b8da" stroke="#86b8da" stroke-width="1.51"/><path d="M617,469L487,506L630,554Z" fill="#90c0df" stroke="#90c0df" stroke-width="1.51"/><path d="M487,506L495,620L630,554Z" fill="#8dbede" stroke="#8dbede" stroke-width="1.51"/><path d="M504,1176L596,1222L609,1134Z" fill="#6686b6" stroke="#6686b6" stroke-width="1.51"/><path d="M450,1015L504,1176L609,1134Z" fill="#6c8ec1" stroke="#6c8ec1" stroke-width="1.51"/><path d="M413,834L450,1015L612,952Z" fill="#759fce" stroke="#759fce" stroke-width="1.51"/><path d="M413,834L612,952L613,832Z" fill="#75a3d0" stroke="#75a3d0" stroke-width="1.51"/><path d="M596,378L487,506L617,469Z" fill="#98c5e1" stroke="#98c5e1" stroke-width="1.51"/><path d="M535,710L413,834L613,832Z" fill="#7cabd4" stroke="#7cabd4" stroke-width="1.51"/><path d="M429,743L413,834L535,710Z" fill="#82b0d7" stroke="#82b0d7" stroke-width="1.51"/><path d="M465,-55L537,9L544,-127Z" fill="#cbe0f0" stroke="#cbe0f0" stroke-width="1.51"/><path d="M440,359L487,506L596,378Z" fill="#a1cae2" stroke="#a1cae2" stroke-width="1.51"/><path d="M450,1015L413,1080L504,1176Z" fill="#7291c4" stroke="#7291c4" stroke-width="1.51"/><path d="M366,-182L455,-102L544,-127Z" fill="#d4e5f4" stroke="#d4e5f4" stroke-width="1.51"/><path d="M455,-102L465,-55L544,-127Z" fill="#cfe2f1" stroke="#cfe2f1" stroke-width="1.51"/><path d="M420,200L440,359L559,197Z" fill="#b6d4e9" stroke="#b6d4e9" stroke-width="1.51"/><path d="M545,61L433,96L559,197Z" fill="#c0d9ec" stroke="#c0d9ec" stroke-width="1.51"/><path d="M433,96L420,200L559,197Z" fill="#bfd8ec" stroke="#bfd8ec" stroke-width="1.51"/><path d="M537,9L433,96L545,61Z" fill="#c4dbee" stroke="#c4dbee" stroke-width="1.51"/><path d="M495,620L429,743L535,710Z" fill="#85b5d9" stroke="#85b5d9" stroke-width="1.51"/><path d="M465,-55L433,96L537,9Z" fill="#c8deef" stroke="#c8deef" stroke-width="1.51"/><path d="M413,834L351,990L450,1015Z" fill="#7ca0cf" stroke="#7ca0cf" stroke-width="1.51"/><path d="M357,-32L433,96L465,-55Z" fill="#cde0f2" stroke="#cde0f2" stroke-width="1.51"/><path d="M440,359L335,487L487,506Z" fill="#a2c9e3" stroke="#a2c9e3" stroke-width="1.51"/><path d="M386,718L429,743L495,620Z" fill="#88b6db" stroke="#88b6db" stroke-width="1.51"/><path d="M487,506L372,575L495,620Z" fill="#93c0e0" stroke="#93c0e0" stroke-width="1.51"/><path d="M413,1080L322,1207L504,1176Z" fill="#728cbd" stroke="#728cbd" stroke-width="1.51"/><path d="M334,396L335,487L440,359Z" fill="#abcee6" stroke="#abcee6" stroke-width="1.51"/><path d="M372,575L386,718L495,620Z" fill="#8fbbde" stroke="#8fbbde" stroke-width="1.51"/><path d="M357,-32L377,89L433,96Z" fill="#ccdff1" stroke="#ccdff1" stroke-width="1.51"/><path d="M335,487L372,575L487,506Z" fill="#9bc5e2" stroke="#9bc5e2" stroke-width="1.51"/><path d="M-2,1232L-175,1199L96,1273Z" fill="#828eb8" stroke="#828eb8" stroke-width="1.51"/><path d="M382,809L413,834L429,743Z" fill="#83aed7" stroke="#83aed7" stroke-width="1.51"/><path d="M420,200L334,396L440,359Z" fill="#b4d3e8" stroke="#b4d3e8" stroke-width="1.51"/><path d="M455,-102L357,-32L465,-55Z" fill="#d1e3f2" stroke="#d1e3f2" stroke-width="1.51"/><path d="M377,89L420,200L433,96Z" fill="#c6dbef" stroke="#c6dbef" stroke-width="1.51"/><path d="M366,-182L357,-32L455,-102Z" fill="#d6e5f5" stroke="#d6e5f5" stroke-width="1.51"/><path d="M283,179L334,396L420,200Z" fill="#bdd8ec" stroke="#bdd8ec" stroke-width="1.51"/><path d="M351,990L413,1080L450,1015Z" fill="#7898c9" stroke="#7898c9" stroke-width="1.51"/><path d="M285,1146L322,1207L413,1080Z" fill="#778fc0" stroke="#778fc0" stroke-width="1.51"/><path d="M382,809L249,868L413,834Z" fill="#85acd6" stroke="#85acd6" stroke-width="1.51"/><path d="M249,868L351,990L413,834Z" fill="#82a7d4" stroke="#82a7d4" stroke-width="1.51"/><path d="M386,718L382,809L429,743Z" fill="#87b2d8" stroke="#87b2d8" stroke-width="1.51"/><path d="M377,89L283,179L420,200Z" fill="#c7dcef" stroke="#c7dcef" stroke-width="1.51"/><path d="M351,990L285,1146L413,1080Z" fill="#7a96c7" stroke="#7a96c7" stroke-width="1.51"/><path d="M283,179L180,239L334,396Z" fill="#bfd8ec" stroke="#bfd8ec" stroke-width="1.51"/><path d="M249,868L231,950L351,990Z" fill="#82a4d2" stroke="#82a4d2" stroke-width="1.51"/><path d="M254,-167L357,-32L366,-182Z" fill="#dbe8f6" stroke="#dbe8f6" stroke-width="1.51"/><path d="M169,603L235,731L372,575Z" fill="#97bfe0" stroke="#97bfe0" stroke-width="1.51"/><path d="M357,-32L233,102L377,89Z" fill="#cfe1f2" stroke="#cfe1f2" stroke-width="1.51"/><path d="M235,731L382,809L386,718Z" fill="#8ab4da" stroke="#8ab4da" stroke-width="1.51"/><path d="M372,575L235,731L386,718Z" fill="#91bbde" stroke="#91bbde" stroke-width="1.51"/><path d="M235,731L249,868L382,809Z" fill="#89b1d8" stroke="#89b1d8" stroke-width="1.51"/><path d="M215,1106L285,1146L351,990Z" fill="#7c97c8" stroke="#7c97c8" stroke-width="1.51"/><path d="M233,102L283,179L377,89Z" fill="#ccdff1" stroke="#ccdff1" stroke-width="1.51"/><path d="M200,-28L233,102L357,-32Z" fill="#d4e4f4" stroke="#d4e4f4" stroke-width="1.51"/><path d="M335,487L169,603L372,575Z" fill="#9dc5e3" stroke="#9dc5e3" stroke-width="1.51"/><path d="M180,239L184,393L334,396Z" fill="#b9d6ea" stroke="#b9d6ea" stroke-width="1.51"/><path d="M254,-167L200,-28L357,-32Z" fill="#dae8f6" stroke="#dae8f6" stroke-width="1.51"/><path d="M231,950L215,1106L351,990Z" fill="#809dcd" stroke="#809dcd" stroke-width="1.51"/><path d="M184,393L171,449L334,396Z" fill="#b1d1e8" stroke="#b1d1e8" stroke-width="1.51"/><path d="M334,396L171,449L335,487Z" fill="#abcee6" stroke="#abcee6" stroke-width="1.51"/><path d="M171,449L169,603L335,487Z" fill="#a4cae6" stroke="#a4cae6" stroke-width="1.51"/><path d="M285,1146L243,1246L322,1207Z" fill="#778bb9" stroke="#778bb9" stroke-width="1.51"/><path d="M215,1106L243,1246L285,1146Z" fill="#7a8fbe" stroke="#7a8fbe" stroke-width="1.51"/><path d="M233,102L180,239L283,179Z" fill="#cbdef0" stroke="#cbdef0" stroke-width="1.51"/><path d="M114,1058L215,1106L231,950Z" fill="#839dcc" stroke="#839dcc" stroke-width="1.51"/><path d="M130,947L114,1058L231,950Z" fill="#86a3d1" stroke="#86a3d1" stroke-width="1.51"/><path d="M92,143L180,239L233,102Z" fill="#cee0f2" stroke="#cee0f2" stroke-width="1.51"/><path d="M169,603L134,740L235,731Z" fill="#96bddf" stroke="#96bddf" stroke-width="1.51"/><path d="M215,1106L96,1273L243,1246Z" fill="#7a8cb9" stroke="#7a8cb9" stroke-width="1.51"/><path d="M134,740L77,889L249,868Z" fill="#8eb1d9" stroke="#8eb1d9" stroke-width="1.51"/><path d="M130,947L231,950L249,868Z" fill="#86a8d4" stroke="#86a8d4" stroke-width="1.51"/><path d="M235,731L134,740L249,868Z" fill="#8eb5da" stroke="#8eb5da" stroke-width="1.51"/><path d="M65,-65L200,-28L254,-167Z" fill="#dfeaf7" stroke="#dfeaf7" stroke-width="1.51"/><path d="M47,-162L65,-65L254,-167Z" fill="#e4eef9" stroke="#e4eef9" stroke-width="1.51"/><path d="M77,889L130,947L249,868Z" fill="#89abd6" stroke="#89abd6" stroke-width="1.51"/><path d="M200,-28L92,143L233,102Z" fill="#d4e4f4" stroke="#d4e4f4" stroke-width="1.51"/><path d="M180,239L123,391L184,393Z" fill="#bcd8eb" stroke="#bcd8eb" stroke-width="1.51"/><path d="M114,1058L96,1273L215,1106Z" fill="#7f94c2" stroke="#7f94c2" stroke-width="1.51"/><path d="M111,460L169,603L171,449Z" fill="#a8cde7" stroke="#a8cde7" stroke-width="1.51"/><path d="M11,1136L96,1273L114,1058Z" fill="#8294c2" stroke="#8294c2" stroke-width="1.51"/><path d="M65,-65L92,143L200,-28Z" fill="#dae8f5" stroke="#dae8f5" stroke-width="1.51"/><path d="M52,234L123,391L180,239Z" fill="#c3dcee" stroke="#c3dcee" stroke-width="1.51"/><path d="M37,597L134,740L169,603Z" fill="#9cc3e2" stroke="#9cc3e2" stroke-width="1.51"/><path d="M111,460L37,597L169,603Z" fill="#a5cae6" stroke="#a5cae6" stroke-width="1.51"/><path d="M92,143L52,234L180,239Z" fill="#cde0f1" stroke="#cde0f1" stroke-width="1.51"/><path d="M123,391L171,449L184,393Z" fill="#b4d3e9" stroke="#b4d3e9" stroke-width="1.51"/><path d="M65,-65L-16,101L92,143Z" fill="#dae8f5" stroke="#dae8f5" stroke-width="1.51"/><path d="M123,391L111,460L171,449Z" fill="#b2d2e8" stroke="#b2d2e8" stroke-width="1.51"/><path d="M11,1136L-2,1232L96,1273Z" fill="#808fbb" stroke="#808fbb" stroke-width="1.51"/><path d="M-20,519L37,597L111,460Z" fill="#aacee8" stroke="#aacee8" stroke-width="1.51"/><path d="M52,234L-12,325L123,391Z" fill="#c3dced" stroke="#c3dced" stroke-width="1.51"/><path d="M6,932L114,1058L130,947Z" fill="#89a5d1" stroke="#89a5d1" stroke-width="1.51"/><path d="M37,597L-2,609L134,740Z" fill="#9fc4e2" stroke="#9fc4e2" stroke-width="1.51"/><path d="M-2,609L-63,741L134,740Z" fill="#9cc1e1" stroke="#9cc1e1" stroke-width="1.51"/><path d="M-63,741L77,889L134,740Z" fill="#95b8dc" stroke="#95b8dc" stroke-width="1.51"/><path d="M77,889L6,932L130,947Z" fill="#8cabd6" stroke="#8cabd6" stroke-width="1.51"/><path d="M-12,325L111,460L123,391Z" fill="#bad7eb" stroke="#bad7eb" stroke-width="1.51"/><path d="M-12,325L-20,519L111,460Z" fill="#b7d5ea" stroke="#b7d5ea" stroke-width="1.51"/><path d="M6,932L11,1136L114,1058Z" fill="#88a0ce" stroke="#88a0ce" stroke-width="1.51"/><path d="M-36,-68L-16,101L65,-65Z" fill="#e0ecf7" stroke="#e0ecf7" stroke-width="1.51"/><path d="M-63,741L-89,883L77,889Z" fill="#95b5db" stroke="#95b5db" stroke-width="1.51"/><path d="M-89,883L6,932L77,889Z" fill="#90afd8" stroke="#90afd8" stroke-width="1.51"/><path d="M-16,101L52,234L92,143Z" fill="#d4e3f4" stroke="#d4e3f4" stroke-width="1.51"/><path d="M6,932L-129,991L11,1136Z" fill="#8da4d0" stroke="#8da4d0" stroke-width="1.51"/><path d="M47,-162L-36,-68L65,-65Z" fill="#e5eff9" stroke="#e5eff9" stroke-width="1.51"/><path d="M-16,101L-85,189L52,234Z" fill="#d5e5f4" stroke="#d5e5f4" stroke-width="1.51"/><path d="M-20,519L-2,609L37,597Z" fill="#a7cbe6" stroke="#a7cbe6" stroke-width="1.51"/><path d="M-85,189L-12,325L52,234Z" fill="#cde1f1" stroke="#cde1f1" stroke-width="1.51"/><path d="M-146,368L-20,519L-12,325Z" fill="#bedaec" stroke="#bedaec" stroke-width="1.51"/><path d="M-83,-195L-36,-68L47,-162Z" fill="#eaf2fb" stroke="#eaf2fb" stroke-width="1.51"/><path d="M-146,368L-140,499L-20,519Z" fill="#b8d7eb" stroke="#b8d7eb" stroke-width="1.51"/><path d="M-36,-68L-167,5L-16,101Z" fill="#e2edf9" stroke="#e2edf9" stroke-width="1.51"/><path d="M-85,189L-139,230L-12,325Z" fill="#d0e3f2" stroke="#d0e3f2" stroke-width="1.51"/><path d="M-175,1150L-175,1199L-2,1232Z" fill="#8895bf" stroke="#8895bf" stroke-width="1.51"/><path d="M-175,1150L-2,1232L11,1136Z" fill="#8696c1" stroke="#8696c1" stroke-width="1.51"/><path d="M-129,991L-175,1150L11,1136Z" fill="#8c9fcc" stroke="#8c9fcc" stroke-width="1.51"/><path d="M-89,883L-129,991L6,932Z" fill="#92add7" stroke="#92add7" stroke-width="1.51"/><path d="M-83,-195L-132,-139L-36,-68Z" fill="#ecf3fb" stroke="#ecf3fb" stroke-width="1.51"/><path d="M-20,519L-156,563L-2,609Z" fill="#abcde7" stroke="#abcde7" stroke-width="1.51"/><path d="M-156,563L-63,741L-2,609Z" fill="#a5c8e5" stroke="#a5c8e5" stroke-width="1.51"/><path d="M-167,5L-182,80L-16,101Z" fill="#e1ecf8" stroke="#e1ecf8" stroke-width="1.51"/><path d="M-139,230L-146,368L-12,325Z" fill="#cae1f0" stroke="#cae1f0" stroke-width="1.51"/><path d="M-140,499L-156,563L-20,519Z" fill="#b1d2ea" stroke="#b1d2ea" stroke-width="1.51"/><path d="M-182,80L-85,189L-16,101Z" fill="#dce9f6" stroke="#dce9f6" stroke-width="1.51"/><path d="M-132,-139L-167,5L-36,-68Z" fill="#e9f2fb" stroke="#e9f2fb" stroke-width="1.51"/><path d="M-206,776L-147,899L-89,883Z" fill="#9ab7dc" stroke="#9ab7dc" stroke-width="1.51"/><path d="M-147,899L-129,991L-89,883Z" fill="#95afd8" stroke="#95afd8" stroke-width="1.51"/><path d="M-206,776L-89,883L-63,741Z" fill="#9cbbde" stroke="#9cbbde" stroke-width="1.51"/><path d="M-156,563L-206,776L-63,741Z" fill="#a4c5e3" stroke="#a4c5e3" stroke-width="1.51"/><path d="M-182,80L-139,230L-85,189Z" fill="#dbe8f6" stroke="#dbe8f6" stroke-width="1.51"/><path d="M-147,899L-175,1150L-129,991Z" fill="#92a8d3" stroke="#92a8d3" stroke-width="1.51"/><path d="M-206,776L-175,1150L-147,899Z" fill="#96afd8" stroke="#96afd8" stroke-width="1.51"/><path d="M-146,368L-156,563L-140,499Z" fill="#b9d7ec" stroke="#b9d7ec" stroke-width="1.51"/><path d="M-182,80L-146,368L-139,230Z" fill="#d5e6f3" stroke="#d5e6f3" stroke-width="1.51"/><path d="M-206,776L-156,563L-146,368Z" fill="#afd0e9" stroke="#afd0e9" stroke-width="1.51"/><path d="M-182,80L-206,776L-146,368Z" fill="#c3ddee" stroke="#c3ddee" stroke-width="1.51"/><path d="M-206,776L-175,1199L-175,1150Z" fill="#92a6d1" stroke="#92a6d1" stroke-width="1.51"/></svg>